<svg xmlns="http://www.w3.org/2000/svg" width="24" height="24" viewBox="0 0 24 24">
    <path fill="#8E8E8C" fill-rule="evenodd" d="M21.396 4.194H2.82c-.81 0-1.467.653-1.467 1.457v13.6c0 .805.657 1.458 1.467 1.458h18.577c.81 0 1.467-.653 1.467-1.458v-13.6c0-.804-.657-1.457-1.467-1.457zm0 14.028l-3.881-3.857a.737.737 0 0 0-1.019.018.725.725 0 0 0-.018 1.012l3.882 3.856H3.855l3.882-3.856a.725.725 0 0 0-.018-1.012.737.737 0 0 0-1.019-.018L2.82 18.222v-9.35l8.8 6.59c.26.195.619.195.88 0l8.888-6.595.01 9.355zm0-12.57V7.05l-9.323 6.922L2.82 7.05V5.651h18.577z"/>
</svg>
