<svg xmlns="http://www.w3.org/2000/svg" width="24" height="24" viewBox="0 0 24 24">
    <g fill="#8E8E8C" fill-rule="evenodd">
        <path d="M12.613 1.204c-5.051.127-9.116 4.173-9.243 9.2a10.155 10.155 0 0 0 1.206 4.248l.072.128c5.587 8.913 7.256 8.913 7.965 8.913 1.11 0 2.306-.777 5.135-4.738a73.318 73.318 0 0 0 2.809-4.18l.072-.123a10.156 10.156 0 0 0 1.227-4.248c-.127-5.027-4.192-9.073-9.243-9.2zm6.676 12.778s-5.135 8.178-6.676 8.178c-1.54 0-6.676-8.178-6.676-8.178a8.689 8.689 0 0 1-1.027-3.578c0-4.234 3.449-7.666 7.703-7.666 4.254 0 7.703 3.432 7.703 7.666a8.69 8.69 0 0 1-1.043 3.578h.016z"/>
        <path d="M12.613 5.804c-2.269 0-4.108 1.831-4.108 4.09 0 2.258 1.84 4.088 4.108 4.088 2.269 0 4.108-1.83 4.108-4.089 0-2.258-1.84-4.089-4.108-4.089zm0 6.645a2.562 2.562 0 0 1-2.568-2.556 2.562 2.562 0 0 1 2.568-2.555 2.562 2.562 0 0 1 2.568 2.555 2.562 2.562 0 0 1-2.568 2.556z"/>
    </g>
</svg>
