<svg xmlns="http://www.w3.org/2000/svg" width="24" height="24" viewBox="0 0 24 24">
    <g fill="#8E8E8C" fill-rule="evenodd">
        <path d="M12.36 14.513c2.755 0 5-2.76 5-6.154 0-3.395-2.245-6.154-5-6.154s-5 2.76-5 6.154c0 3.395 2.25 6.154 5 6.154zm0-10.77c1.935 0 3.5 2.052 3.5 4.616 0 2.564-1.565 4.615-3.5 4.615s-3.5-2.05-3.5-4.615c0-2.564 1.565-4.615 3.5-4.615z"/>
        <path d="M16.825 14.004a.759.759 0 0 0-.825.692.768.768 0 0 0 .675.846c2.326.28 4.128 2.22 4.29 4.616H3.535c.177-2.39 1.971-4.32 4.29-4.616a.768.768 0 0 0 .675-.846.759.759 0 0 0-.825-.692C7.62 14.004 2 14.66 2 20.922c0 .425.336.77.75.77h19a.76.76 0 0 0 .75-.77c0-6.262-5.62-6.918-5.675-6.918z"/>
    </g>
</svg>
