<?xml version="1.0" encoding="utf-8"?>
<!-- Generator: Adobe Illustrator 23.0.5, SVG Export Plug-In . SVG Version: 6.00 Build 0)  -->
<svg version="1.1" id="Capa_1" xmlns="http://www.w3.org/2000/svg" xmlns:xlink="http://www.w3.org/1999/xlink" x="0px" y="0px"
	 viewBox="0 0 380 512" style="enable-background:new 0 0 380 512;" xml:space="preserve">
<style type="text/css">
	.st0{fill:#E6B980;}
</style>
<g>
	<g>
		<g>
			<path class="st0" d="M330,0H30.3C13.6,0,0,13.6,0,30.3v451.4C0,498.4,13.6,512,30.3,512H330c27.6,0,50-22.4,50-50V50
				C380,22.4,357.6,0,330,0z M46,492H30.3c-5.7,0-10.3-4.6-10.3-10.3V30.3C20,24.6,24.6,20,30.3,20H46V492z M360,462
				c0,16.5-13.5,30-30,30H66V20h264c16.5,0,30,13.5,30,30V462z"/>
		</g>
	</g>
	<g>
		<g>
			<path class="st0" d="M292.9,156.2c-0.1-0.1-0.1-0.2-0.2-0.3c-0.3-0.4-0.7-0.8-1.1-1.1c-20.1-20.1-47.9-32.6-78.5-32.6
				c-30.6,0-58.4,12.5-78.5,32.6c-0.4,0.3-0.8,0.7-1.1,1.1c-0.1,0.1-0.2,0.2-0.2,0.3c-19.3,20-31.1,47.1-31.1,77
				c0,29.9,11.9,57,31.1,77c0.1,0.1,0.1,0.2,0.2,0.3c0.3,0.4,0.7,0.8,1.1,1.1c20.1,20.1,47.9,32.6,78.5,32.6
				c30.6,0,58.4-12.5,78.5-32.6c0.4-0.3,0.8-0.7,1.1-1.1c0.1-0.1,0.2-0.2,0.2-0.3c19.3-20,31.1-47.1,31.1-77
				C324,203.4,312.1,176.2,292.9,156.2z M303.4,223.3h-41.6c-0.4-11.6-1.6-22.9-3.5-33.4c9.1-3.5,17.7-8.1,25.5-13.6
				C294.5,189.4,301.5,205.5,303.4,223.3z M213,142.3c6.8,0,15.5,12.5,21.7,33.8c-7.1,1.5-14.3,2.2-21.7,2.2s-14.6-0.8-21.7-2.2
				C197.5,154.7,206.2,142.3,213,142.3z M180.6,148.2c-1.6,3.1-3.1,6.5-4.5,10.1c-1.4,3.7-2.8,7.7-4,11.8
				c-5.5-2.3-10.7-5.1-15.5-8.2C163.8,156.2,171.9,151.5,180.6,148.2z M142.2,176.2c7.7,5.5,16.3,10.1,25.5,13.6
				c-1.9,10.5-3,21.8-3.5,33.4h-41.6C124.5,205.6,131.5,189.4,142.2,176.2z M122.6,243.3h41.6c0.4,11.6,1.6,22.9,3.5,33.4
				c-9.1,3.5-17.7,8.1-25.5,13.6C131.5,277.1,124.5,261,122.6,243.3z M156.6,304.7c4.8-3.2,10-5.9,15.5-8.2c1.2,4.1,2.5,8.1,4,11.8
				c1.4,3.6,2.9,7,4.5,10.1C171.9,315,163.8,310.3,156.6,304.7z M213,324.3c-6.8,0-15.5-12.5-21.7-33.8c7.1-1.5,14.3-2.2,21.7-2.2
				c7.3,0,14.6,0.8,21.7,2.2C228.5,311.8,219.8,324.3,213,324.3z M213,268.2c-8.8,0-17.5,0.9-26,2.7c-1.4-8.4-2.4-17.7-2.8-27.7
				h57.6c-0.4,10-1.4,19.3-2.8,27.7C230.5,269.2,221.8,268.2,213,268.2z M184.2,223.3c0.4-10,1.4-19.3,2.8-27.7
				c8.5,1.8,17.2,2.7,26,2.7s17.5-0.9,26-2.7c1.4,8.4,2.4,17.7,2.8,27.7H184.2z M269.4,161.9c-4.8,3.2-10,5.9-15.5,8.2
				c-1.2-4.1-2.5-8.1-4-11.8c-1.4-3.6-2.9-7-4.5-10.1C254.1,151.5,262.2,156.2,269.4,161.9z M245.4,318.3c1.6-3.1,3.1-6.5,4.5-10.1
				c1.4-3.7,2.8-7.7,4-11.8c5.5,2.3,10.7,5.1,15.5,8.2C262.2,310.3,254.1,315,245.4,318.3z M283.8,290.3
				c-7.7-5.5-16.3-10.1-25.5-13.6c1.9-10.5,3-21.8,3.5-33.4h41.6C301.5,261,294.5,277.1,283.8,290.3z"/>
		</g>
	</g>
	<g>
		<g>
			<path class="st0" d="M178.2,387.8H178c-5.5,0-10,4.5-10,10s4.5,10,10,10h0.2c5.5,0,10-4.5,10-10S183.8,387.8,178.2,387.8z"/>
		</g>
	</g>
	<g>
		<g>
			<path class="st0" d="M248,387.8h-41c-5.5,0-10,4.5-10,10s4.5,10,10,10h41c5.5,0,10-4.5,10-10S253.5,387.8,248,387.8z"/>
		</g>
	</g>
	<g>
		<g>
			<path class="st0" d="M264.5,429.8h-103c-5.5,0-10,4.5-10,10s4.5,10,10,10h103c5.5,0,10-4.5,10-10S270,429.8,264.5,429.8z"/>
		</g>
	</g>
	<g>
		<g>
			<path class="st0" d="M135,36.2H94c-5.5,0-10,4.5-10,10s4.5,10,10,10h41c5.5,0,10-4.5,10-10S140.5,36.2,135,36.2z"/>
		</g>
	</g>
	<g>
		<g>
			<path class="st0" d="M164,36.2h-0.2c-5.5,0-10,4.5-10,10s4.5,10,10,10h0.2c5.5,0,10-4.5,10-10S169.5,36.2,164,36.2z"/>
		</g>
	</g>
</g>
</svg>
