<?xml version="1.0" encoding="utf-8"?>
<!-- Generator: Adobe Illustrator 23.0.5, SVG Export Plug-In . SVG Version: 6.00 Build 0)  -->
<svg version="1.1" id="Layer_1" xmlns="http://www.w3.org/2000/svg" xmlns:xlink="http://www.w3.org/1999/xlink" x="0px" y="0px"
	 viewBox="0 0 384 512" style="enable-background:new 0 0 384 512;" xml:space="preserve">
<style type="text/css">
	.st0{fill:#E6B980;}
</style>
<g>
	<g>
		<g>
			<path class="st0" d="M224,320c88.4,0,160-71.6,160-160S312.4,0,224,0c0,0,0,0,0,0H53.3c-5.9,0-10.7,4.8-10.7,10.7v288h-32
				c-5.9,0-10.7,4.8-10.7,10.7c0,5.9,4.8,10.7,10.7,10.7h32v42.7h-32c-5.9,0-10.7,4.8-10.7,10.7c0,5.9,4.8,10.7,10.7,10.7h32v117.3
				c0,5.9,4.8,10.7,10.7,10.7S64,507.2,64,501.3V384h181.3c5.9,0,10.7-4.8,10.7-10.7c0-5.9-4.8-10.7-10.7-10.7H64V320H224z M64,21.3
				h160h0c18.7,0,36.9,3.7,54,10.9c16.5,7,31.3,17,44.1,29.7c12.8,12.7,22.8,27.6,29.7,44.1c7.2,17.1,10.9,35.2,10.9,54
				s-3.7,36.9-10.9,54c-7,16.5-17,31.3-29.7,44.1c-12.7,12.7-27.6,22.7-44.1,29.7c-17.1,7.2-35.2,10.9-54,10.9H64V21.3z"/>
		</g>
	</g>
</g>
</svg>
