<svg width="50" height="35" viewBox="0 0 50 35" fill="none" xmlns="http://www.w3.org/2000/svg">
<path d="M0 1.5C0 0.671573 0.671573 0 1.5 0H48.5C49.3284 0 50 0.671573 50 1.5C50 2.32843 49.3284 3 48.5 3H1.5C0.671571 3 0 2.32843 0 1.5Z" fill="#585858"/>
<path d="M0 17.5C0 16.6716 0.671573 16 1.5 16H48.5C49.3284 16 50 16.6716 50 17.5C50 18.3284 49.3284 19 48.5 19H1.5C0.671571 19 0 18.3284 0 17.5Z" fill="#585858"/>
<path d="M0 33.5C0 32.6716 0.671573 32 1.5 32H48.5C49.3284 32 50 32.6716 50 33.5C50 34.3284 49.3284 35 48.5 35H1.5C0.671571 35 0 34.3284 0 33.5Z" fill="#585858"/>
</svg>
