<svg width="33" height="33" viewBox="0 0 33 33" fill="none" xmlns="http://www.w3.org/2000/svg">
<path d="M16.2 31.4C24.5947 31.4 31.4 24.5947 31.4 16.2C31.4 7.80527 24.5947 1 16.2 1C7.80527 1 1 7.80527 1 16.2C1 24.5947 7.80527 31.4 16.2 31.4Z" stroke="#E6B980" stroke-opacity="0.6" stroke-width="1.6"/>
<path d="M21.457 15.057H10.943C10.6399 15.057 10.3492 15.1774 10.1348 15.3918C9.92047 15.6061 9.80005 15.8969 9.80005 16.2C9.80005 16.5031 9.92047 16.7939 10.1348 17.0082C10.3492 17.2226 10.6399 17.343 10.943 17.343H21.457C21.7602 17.343 22.0509 17.2226 22.2653 17.0082C22.4796 16.7939 22.6 16.5031 22.6 16.2C22.6 15.8969 22.4796 15.6061 22.2653 15.3918C22.0509 15.1774 21.7602 15.057 21.457 15.057V15.057Z" fill="#E6B980" fill-opacity="0.6"/>
</svg>
