<svg width="33" height="33" viewBox="0 0 33 33" fill="none" xmlns="http://www.w3.org/2000/svg">
<path d="M16.2 31.4C24.5947 31.4 31.4 24.5947 31.4 16.2C31.4 7.80527 24.5947 1 16.2 1C7.80527 1 1 7.80527 1 16.2C1 24.5947 7.80527 31.4 16.2 31.4Z" stroke="#E6B980" stroke-width="1.6"/>
<path d="M21.457 15.057H17.571C17.5107 15.0568 17.4528 15.0327 17.4101 14.99C17.3674 14.9473 17.3433 14.8894 17.343 14.829V10.943C17.343 10.6399 17.2226 10.3492 17.0083 10.1348C16.7939 9.92047 16.5032 9.80005 16.2 9.80005C15.8969 9.80005 15.6062 9.92047 15.3918 10.1348C15.1775 10.3492 15.057 10.6399 15.057 10.943V14.829C15.0568 14.8894 15.0327 14.9473 14.99 14.99C14.9473 15.0327 14.8894 15.0568 14.829 15.057H10.943C10.6399 15.057 10.3492 15.1775 10.1348 15.3918C9.92047 15.6062 9.80005 15.8969 9.80005 16.2C9.80005 16.5032 9.92047 16.7939 10.1348 17.0083C10.3492 17.2226 10.6399 17.343 10.943 17.343H14.829C14.955 17.343 15.057 17.445 15.057 17.571V21.457C15.057 21.7602 15.1775 22.0509 15.3918 22.2653C15.6062 22.4796 15.8969 22.6 16.2 22.6C16.5032 22.6 16.7939 22.4796 17.0083 22.2653C17.2226 22.0509 17.343 21.7602 17.343 21.457V17.571C17.343 17.445 17.445 17.343 17.571 17.343H21.457C21.7602 17.343 22.0509 17.2226 22.2653 17.0083C22.4796 16.7939 22.6 16.5032 22.6 16.2C22.6 15.8969 22.4796 15.6062 22.2653 15.3918C22.0509 15.1775 21.7602 15.057 21.457 15.057V15.057Z" fill="#E6B980"/>
</svg>
