<svg width="759" height="655" viewBox="0 0 759 655" fill="none" xmlns="http://www.w3.org/2000/svg">
<path d="M494.882 380.675C494.882 380.157 494.882 379.603 494.882 379.086C494.878 375.92 494.087 372.803 492.576 369.998C491.065 367.193 488.879 364.783 486.203 362.974L550.498 247.425L546.044 245.097L481.711 360.683C479.448 359.852 477.049 359.426 474.63 359.427C473.067 359.429 471.509 359.602 469.986 359.944L399.409 243.952L390.692 248.94L461.078 364.674C457.503 368.247 455.459 373.004 455.358 377.984C455.257 382.963 457.107 387.794 460.534 391.501C463.961 395.208 468.709 397.514 473.82 397.953C478.931 398.392 484.023 396.931 488.068 393.866L571.397 441.904L579.011 429.267L494.882 380.675Z" fill="#8C623E" fill-opacity="0.11"/>
<path d="M267.278 374.17C265.935 374.17 264.647 374.688 263.698 375.61C262.748 376.531 262.215 377.781 262.215 379.085C262.215 380.388 262.748 381.638 263.698 382.56C264.647 383.482 265.935 384 267.278 384H287.529C288.872 384 290.16 383.482 291.109 382.56C292.059 381.638 292.592 380.388 292.592 379.085C292.592 377.781 292.059 376.531 291.109 375.61C290.16 374.688 288.872 374.17 287.529 374.17H267.278Z" fill="#8C623E" fill-opacity="0.11"/>
<path d="M646.808 379.085C646.818 377.784 647.355 376.54 648.302 375.62C649.25 374.701 650.532 374.18 651.871 374.17H672.123C673.466 374.17 674.754 374.688 675.703 375.61C676.653 376.531 677.186 377.781 677.186 379.085C677.186 380.388 676.653 381.638 675.703 382.56C674.754 383.482 673.466 384 672.123 384H651.757C650.437 383.961 649.184 383.428 648.261 382.511C647.338 381.595 646.818 380.366 646.808 379.085Z" fill="#8C623E" fill-opacity="0.11"/>
<path d="M469.643 570.756C469.643 572.06 470.177 573.31 471.126 574.231C472.076 575.153 473.363 575.671 474.706 575.671C476.049 575.671 477.337 575.153 478.286 574.231C479.236 573.31 479.769 572.06 479.769 570.756V551.098C479.769 549.794 479.236 548.544 478.286 547.623C477.337 546.701 476.049 546.183 474.706 546.183C473.363 546.183 472.076 546.701 471.126 547.623C470.177 548.544 469.643 549.794 469.643 551.098V570.756Z" fill="#8C623E" fill-opacity="0.11"/>
<path d="M474.706 202.084C474.04 202.089 473.379 201.965 472.763 201.72C472.146 201.475 471.586 201.113 471.115 200.656C470.644 200.198 470.271 199.655 470.018 199.056C469.766 198.458 469.638 197.816 469.643 197.17V177.585C469.643 176.281 470.177 175.031 471.126 174.11C472.076 173.188 473.363 172.67 474.706 172.67C476.049 172.67 477.337 173.188 478.286 174.11C479.236 175.031 479.769 176.281 479.769 177.585V197.243C479.749 198.534 479.207 199.765 478.26 200.671C477.312 201.577 476.036 202.084 474.706 202.084Z" fill="#8C623E" fill-opacity="0.11"/>
<path d="M296.247 475.124C295.831 475.343 295.464 475.64 295.169 475.999C294.873 476.357 294.655 476.77 294.526 477.212C294.397 477.654 294.361 478.116 294.42 478.572C294.479 479.027 294.631 479.467 294.867 479.865C295.104 480.262 295.42 480.61 295.798 480.887C296.175 481.164 296.606 481.365 297.064 481.477C297.523 481.59 298 481.612 298.468 481.543C298.935 481.474 299.384 481.314 299.787 481.073L319.925 469.803C320.33 469.577 320.685 469.276 320.97 468.918C321.255 468.559 321.465 468.149 321.586 467.711C321.708 467.274 321.74 466.817 321.681 466.368C321.621 465.918 321.47 465.485 321.238 465.092C321.005 464.698 320.696 464.354 320.326 464.077C319.956 463.8 319.534 463.597 319.083 463.478C318.632 463.36 318.162 463.329 317.699 463.387C317.236 463.445 316.789 463.591 316.384 463.817L296.247 475.124Z" fill="#8C623E" fill-opacity="0.11"/>
<path d="M628.155 293.097C627.918 292.708 627.763 292.277 627.7 291.828C627.636 291.38 627.666 290.924 627.786 290.487C627.907 290.05 628.116 289.64 628.402 289.283C628.687 288.925 629.044 288.627 629.45 288.404L649.625 277.097C650.436 276.671 651.386 276.568 652.274 276.812C653.161 277.055 653.916 277.625 654.377 278.4C654.838 279.175 654.97 280.094 654.743 280.962C654.517 281.83 653.951 282.578 653.166 283.046L632.99 294.465C632.581 294.686 632.13 294.826 631.665 294.876C631.199 294.927 630.728 294.888 630.279 294.761C629.829 294.634 629.41 294.421 629.045 294.136C628.681 293.85 628.378 293.497 628.155 293.097Z" fill="#8C623E" fill-opacity="0.11"/>
<path d="M294.724 273.993C294.319 273.767 293.872 273.621 293.409 273.563C292.946 273.505 292.476 273.536 292.025 273.654C291.575 273.773 291.152 273.976 290.783 274.253C290.413 274.53 290.103 274.874 289.871 275.267C289.638 275.66 289.488 276.094 289.428 276.544C289.368 276.993 289.4 277.45 289.522 277.887C289.644 278.325 289.853 278.735 290.139 279.093C290.424 279.452 290.779 279.753 291.184 279.979L311.321 291.064C311.724 291.305 312.173 291.465 312.641 291.534C313.108 291.603 313.586 291.581 314.044 291.468C314.503 291.356 314.934 291.155 315.311 290.878C315.688 290.601 316.005 290.254 316.241 289.856C316.478 289.458 316.63 289.019 316.689 288.563C316.747 288.107 316.711 287.645 316.583 287.203C316.454 286.761 316.235 286.348 315.94 285.99C315.644 285.631 315.278 285.334 314.862 285.115L294.724 273.993Z" fill="#8C623E" fill-opacity="0.11"/>
<path d="M623.092 462.007C623.321 461.612 623.629 461.266 623.997 460.989C624.366 460.712 624.787 460.509 625.238 460.392C625.688 460.275 626.158 460.246 626.62 460.308C627.081 460.369 627.526 460.52 627.927 460.75L648.103 472.057C648.888 472.526 649.454 473.274 649.681 474.142C649.907 475.01 649.775 475.929 649.314 476.704C648.853 477.479 648.098 478.049 647.211 478.292C646.323 478.535 645.373 478.433 644.562 478.007L624.387 466.699C623.981 466.477 623.624 466.179 623.339 465.821C623.053 465.463 622.844 465.054 622.723 464.617C622.603 464.18 622.573 463.724 622.637 463.276C622.7 462.827 622.855 462.396 623.092 462.007Z" fill="#8C623E" fill-opacity="0.11"/>
<path d="M369.602 548.88C369.355 549.272 369.19 549.707 369.119 550.161C369.047 550.615 369.07 551.078 369.186 551.523C369.302 551.969 369.509 552.387 369.794 552.753C370.08 553.119 370.438 553.426 370.848 553.656C371.257 553.886 371.71 554.033 372.18 554.09C372.649 554.147 373.125 554.112 373.581 553.987C374.036 553.863 374.461 553.65 374.83 553.364C375.2 553.077 375.506 552.721 375.731 552.317L387.38 532.732C387.617 532.343 387.772 531.911 387.835 531.463C387.899 531.015 387.869 530.559 387.749 530.122C387.628 529.685 387.419 529.275 387.133 528.918C386.848 528.56 386.492 528.262 386.086 528.039C385.27 527.594 384.308 527.476 383.404 527.711C382.501 527.945 381.728 528.514 381.251 529.296L369.602 548.88Z" fill="#8C623E" fill-opacity="0.11"/>
<path d="M563.289 230.131C562.476 229.675 561.884 228.925 561.641 228.045C561.398 227.165 561.525 226.227 561.994 225.438L573.643 205.853C573.868 205.45 574.175 205.094 574.544 204.807C574.913 204.52 575.338 204.308 575.794 204.183C576.249 204.058 576.725 204.023 577.195 204.08C577.664 204.137 578.117 204.285 578.527 204.514C578.936 204.744 579.294 205.051 579.58 205.417C579.865 205.784 580.072 206.202 580.188 206.647C580.304 207.092 580.327 207.555 580.256 208.009C580.184 208.463 580.02 208.899 579.772 209.29L568.009 228.875C567.54 229.634 566.788 230.188 565.909 230.422C565.029 230.656 564.091 230.552 563.289 230.131Z" fill="#8C623E" fill-opacity="0.11"/>
<path d="M373.866 205.152C373.383 204.389 372.613 203.84 371.719 203.62C370.825 203.401 369.878 203.528 369.079 203.976C368.281 204.424 367.694 205.156 367.443 206.018C367.192 206.879 367.298 207.801 367.737 208.588L379.157 228.173C379.627 228.967 380.402 229.547 381.312 229.786C382.222 230.025 383.193 229.904 384.011 229.448C384.829 228.992 385.426 228.24 385.673 227.356C385.919 226.473 385.794 225.53 385.324 224.736L373.866 205.152Z" fill="#8C623E" fill-opacity="0.11"/>
<path d="M561.385 527.263C562.198 526.808 563.164 526.684 564.071 526.92C564.977 527.155 565.75 527.731 566.22 528.519L577.869 548.104C578.308 548.891 578.413 549.813 578.163 550.675C577.912 551.536 577.325 552.269 576.526 552.716C575.728 553.164 574.781 553.292 573.887 553.072C572.993 552.852 572.223 552.303 571.74 551.54L560.091 531.956C559.622 531.167 559.495 530.229 559.737 529.349C559.98 528.469 560.573 527.719 561.385 527.263Z" fill="#8C623E" fill-opacity="0.11"/>
<path fill-rule="evenodd" clip-rule="evenodd" d="M469.643 614.987C518.711 614.995 566.68 600.877 607.482 574.42C648.284 547.963 680.088 510.356 698.87 466.353C717.653 422.35 722.571 373.928 713.003 327.212C703.435 280.495 679.811 237.583 645.117 203.9C610.423 170.217 566.219 147.278 518.094 137.983C469.969 128.688 420.086 133.455 374.752 151.681C329.419 169.907 290.671 200.773 263.409 240.376C236.148 279.979 221.597 326.54 221.597 374.17C221.592 405.793 228.004 437.107 240.467 466.324C252.931 495.541 271.201 522.089 294.234 544.451C317.268 566.814 344.614 584.553 374.711 596.656C404.808 608.758 437.066 614.987 469.643 614.987ZM469.643 600.207C515.71 600.221 560.747 586.974 599.058 562.14C637.368 537.306 667.231 502.001 684.869 460.691C702.506 419.38 707.127 373.92 698.146 330.06C689.165 286.201 666.987 245.911 634.415 214.289C601.843 182.666 560.342 161.13 515.16 152.405C469.978 143.68 423.145 148.158 380.585 165.273C338.025 182.387 301.65 211.369 276.061 248.553C250.471 285.737 236.816 329.453 236.824 374.17C236.824 434.116 261.35 491.607 305.01 534.002C348.67 576.397 407.889 600.224 469.643 600.244V600.207Z" fill="#8C623E" fill-opacity="0.11"/>
<path fill-rule="evenodd" clip-rule="evenodd" d="M758.345 374.171C758.34 413.88 749.639 453.135 732.819 489.332C715.999 525.53 691.444 557.843 660.782 584.129C630.121 610.416 594.053 630.076 554.97 641.804C515.888 653.533 474.683 657.064 434.088 652.162H199.48V638.6H374.171C341.003 627.302 310.246 610.207 283.418 588.161V588.604H41.9574V575.006H268.458C262.595 569.463 256.974 563.686 251.594 557.675H141.199V544.114H240.174C227.704 528.277 217.01 511.195 208.273 493.157H93.5005V479.558H202.183C198.46 470.676 195.219 461.61 192.475 452.398H82.5751V438.8H188.783C184.283 420.265 181.732 401.335 181.169 382.3H0.806641V368.739H181.093C181.345 356.715 182.375 344.719 184.177 332.821H72.4112V319.26H186.613C192.245 291.666 202.167 265.064 216.039 240.367H41.196V226.806H224.147C248.078 189.291 280.797 157.793 319.64 134.876C358.484 111.959 402.354 98.2695 447.678 94.9234H444.138V77.1864H416.768C411.43 77.1377 406.327 75.045 402.57 71.3636C398.814 67.6822 396.706 62.7097 396.706 57.5278V54.276H317.336V41.0102H396.706V20.354C396.702 17.9574 397.141 15.5796 398.001 13.3331H223.729V0.695435H517.798C523.169 0.695435 528.321 2.7666 532.119 6.45329C535.916 10.14 538.05 15.1402 538.05 20.354V57.5278C538.05 62.7416 535.916 67.7418 532.119 71.4285C528.321 75.1152 523.169 77.1864 517.798 77.1864H490.961V94.9234C563.609 100.119 631.545 131.791 681.138 183.584C730.731 235.377 758.312 303.46 758.345 374.171ZM738.094 374.171C738.094 425.689 722.355 476.051 692.868 518.887C663.381 561.723 621.471 595.109 572.436 614.822C523.402 634.536 469.447 639.692 417.394 629.639C365.34 619.585 317.528 594.774 280.002 558.342C242.476 521.91 216.922 475.494 206.573 424.964C196.223 374.435 201.542 322.06 221.858 274.465C242.174 226.87 276.573 186.192 320.706 157.575C364.838 128.958 416.722 113.688 469.795 113.695C540.933 113.734 609.142 141.196 659.426 190.041C709.71 238.887 737.951 305.117 737.941 374.171H738.094ZM517.798 20.354H416.768V57.5278H517.798V20.354Z" fill="#8C623E" fill-opacity="0.11"/>
<path fill-rule="evenodd" clip-rule="evenodd" d="M219.541 149.317C217.481 146.826 216.078 143.885 215.455 140.749C214.831 137.613 215.005 134.377 215.963 131.321H141.123V117.759H227.764L250.985 99.6529H223.691V86.0914H268.686C272.89 83.5919 277.89 82.6671 282.746 83.4902C287.603 84.3134 291.984 86.828 295.067 90.5626L305.954 103.718C307.619 105.731 308.859 108.044 309.603 110.523C310.348 113.002 310.582 115.599 310.292 118.165C310.002 120.732 309.194 123.218 307.914 125.482C306.634 127.745 304.907 129.742 302.832 131.358L258.903 165.539C256.224 167.621 253.044 169.009 249.662 169.571C246.279 170.133 242.805 169.852 239.565 168.753H66.0159V155.192H224.414L219.541 149.317ZM234.083 135.57L278.013 101.39C278.434 101.068 278.969 100.918 279.502 100.973C280.036 101.029 280.526 101.284 280.868 101.685L291.717 114.877C291.886 115.078 292.012 115.309 292.088 115.558C292.165 115.806 292.189 116.067 292.161 116.325C292.133 116.582 292.052 116.832 291.923 117.059C291.795 117.287 291.621 117.487 291.412 117.649L247.483 151.755C247.063 152.071 246.531 152.213 246.004 152.151C245.476 152.089 244.995 151.827 244.666 151.423L233.778 138.268C233.46 137.867 233.315 137.362 233.371 136.86C233.428 136.357 233.683 135.895 234.083 135.57Z" fill="#8C623E" fill-opacity="0.11"/>
<path fill-rule="evenodd" clip-rule="evenodd" d="M668.43 88.1243C666.356 86.508 663.974 85.3042 661.42 84.5817C658.866 83.8593 656.191 83.6322 653.547 83.9136C650.902 84.195 648.341 84.9793 646.009 86.2217C643.678 87.4641 641.621 89.1402 639.956 91.1544L628.917 104.309C625.568 108.385 624.02 113.582 624.612 118.763C625.205 123.944 627.889 128.686 632.076 131.95L675.968 166.13C678.042 167.747 680.424 168.95 682.978 169.673C685.532 170.395 688.207 170.622 690.852 170.341C693.496 170.06 696.057 169.275 698.389 168.033C700.721 166.791 702.778 165.114 704.442 163.1L715.329 149.908C716.993 147.898 718.233 145.588 718.977 143.112C719.72 140.636 719.954 138.042 719.664 135.479C719.374 132.915 718.566 130.432 717.287 128.171C716.007 125.911 714.282 123.917 712.208 122.305L668.43 88.1243ZM700.94 136.162L657.048 101.981C656.627 101.659 656.092 101.51 655.559 101.565C655.025 101.62 654.535 101.876 654.193 102.277L643.306 115.469C642.983 115.882 642.835 116.398 642.892 116.913C642.948 117.428 643.206 117.903 643.611 118.24L687.54 152.384C687.747 152.548 687.985 152.671 688.241 152.745C688.497 152.819 688.766 152.843 689.031 152.815C689.297 152.788 689.554 152.71 689.788 152.585C690.023 152.46 690.229 152.291 690.395 152.089L701.245 138.86C701.576 138.45 701.73 137.932 701.673 137.414C701.616 136.896 701.353 136.42 700.94 136.088V136.162Z" fill="#8C623E" fill-opacity="0.11"/>
</svg>
